**ABCDEFGHIJKLMNOPQRSTUVWXYZabcdefghijklmnopqrstuvwxyz**************************
**PARASOLID !"#$%&'()*+,-./:;<=>?@[\]^_`{|}~0123456789**************************
**PART1;
MC=AMD64;
MC_MODEL=Intel64 Family 6 Model 141 Stepping 1, GenuineIntel;
MC_ID=unknown;
OS=Windows_NT;
OS_RELEASE=unknown;
FRU=Parasolid Version 33.1, build 255,  1- 8-2022;
APPL=SOLIDWORKS 2022-2022076;
SITE=;
USER=unknown;
FORMAT=text;
GUISE=transmit;
KEY=FILEPart1.x_t;
DATE=Fri Jun 30 11:11:02 2023;
**PART2;
SCH=SCH_3301255_33103;
USFLD_SIZE=0;
**PART3;
**END_OF_HEADER*****************************************************************
T51 : TRANSMIT FILE created by modeller version 330125523 SCH_3301255_33103_1300
6230 0 12 35 CCCI7 lattice222 0 CCCI4 mesh1006 0 I8 polyline1008 0 CCCCCCCDI5 ow
ner1040 0 CCCCCCI13 boundary_mesh1006 0 I17 boundary_polyline1008 0 CCCA16 index
_map_offset0 0 1 dA9 index_map82 0 A17 node_id_index_map82 0 A20 schema_embeddin
g_map82 0 A5 child12 0 A14 lowest_node_id0 0 1 dA16 mesh_offset_data206 0 Z1 78
 2 3 0 0 0 0 0 0 0 1e3 1e-8 0 4 0 1 0 1 1 5 6 7 0 0 0 8 9 0 0 0 0 0 0 0 0 81 255
 2 2 75 10 1 11 0 0 0 0 12 70 11 CI9 list_type0 0 1 uI10 notransmit0 0 1 lCCCDCC
DI12 finger_index0 0 1 dI12 finger_block1012 0 CZ3 0 4 T1 0 0 8 20 1 13 13 13 25
5 5 31 0 1 0 14 0 0 15 0 51 255 6 30 0 14 16 0 0 -0 .1524 0 0 -1 0 .025329544810
6685 0 0 -1 31 255 7 25 0 17 18 0 0 +0 0 0 0 1 0 0 0 1 .0253295448106685 19 8 CC
CCCCCA5 owner12 0 Z8 9 0 1 15 0 19 V0 16 255 9 5 0 ?20 0 17 18 0 0 1 17 255 20 0
 21 20 20 0 22 9 0 0 +16 17 20 0 ?23 9 0 7 0 0 1 31 18 7 0 9 0 7 0 +0 .1524 0 0
 1 0 0 0 1 .0253295448106685 17 23 0 24 23 23 0 25 17 0 0 +15 255 24 28 0 23 14
 0 17 25 0 26 25 25 0 23 17 0 0 -15 26 19 0 25 27 0 14 255 27 18 28 ?0 29 26 5 1
6 -0 0 0 29 19 81 1 28 76 30 27 31 0 0 32 33 14 29 1 32 ?27 14 21 5 34 +0 0 27 1
4 19 50 255 16 24 0 27 34 6 0 +0 0 0 0 1 0 0 0 1 13 19 10 0 0 0 0 0 0 8 14 14 14
 27 35 ?29 0 36 5 6 -0 0 29 0 19 81 1 35 78 30 14 37 0 32 0 38 15 36 26 0 22 14
 24 17 22 0 36 22 22 0 20 9 0 0 -80 255 1 30 39 40 9000 1 1 1 1 1 1 1 1 0 FFFFTF
TFFFFFFF1 81 1 37 65 41 14 0 35 0 42 43 81 1 32 77 30 29 42 0 28 35 44 82 255 1
 38 70910242 81 1 42 66 41 29 0 32 37 31 45 82 1 44 68944162 80 1 41 0 46 8001 0
 0 0 0 3 5 0 0 0 FFFFTFTFFFFFFF2 81 1 31 67 41 27 0 28 42 0 47 83 255 3 45 .7921
56862745098 .819607843137255 .933333333333333 83 3 47 .792156862745098 .81960784
3137255 .933333333333333 79 255 15 46 SDL/TYSA_COLOUR83 3 43 .792156862745098 .8
19607843137255 .933333333333333 79 14 40 SWEntUnchanged50 34 3 0 29 0 16 0 +0 .1
524 0 0 1 0 0 0 1 15 21 4 0 20 29 0 82 1 33 70648098 19 15 32 0 1 0 8 5 S0 74 4
 CI16 index_map_offset0 0 1 dCCZ20 13 8 0 0 48 49 35 50 51 11 31 2 0 0 0 0 0 0 0
 0 0 0 0 0 81 2 48 44 52 1 0 49 0 0 0 53 81 2 49 48 54 1 48 50 0 0 0 55 81 1 50
 52 56 1 49 51 0 0 57 81 2 51 53 58 1 50 11 0 0 0 0 81 2 11 58 59 1 51 2 0 0 60
 0 80 2 59 61 62 8004 0 0 0 0 3 5 0 0 0 FFTFFFFFFFFFFF2 3 83 1 60 1e3 79 16 62 S
DL/TYSA_DENSITY80 2 58 63 64 9000 0 0 0 0 3 5 0 0 0 FFTFFFFFFFFFFF9 1 79 16 64 B
ODY_RECIPE_200180 1 56 65 66 9000 1 1 1 1 1 1 1 1 0 FFTFFFFFFFFFFF1 82 1 57 1050
 79 10 66 BODY_MATCH80 2 54 67 68 9000 0 0 0 0 3 5 0 0 0 FFTFFFFFFFFFFF9 1 82 1
 55 33 79 30 68 LAST_BODY_MODIFYING_FEATURE_ID80 2 52 69 70 9000 0 0 0 0 3 5 0 0
 0 FFTFFFFFFFFFFF9 1 82 1 53 103 79 19 70 ENT_TIME_STAMP_200180 2 10 71 72 9000
 0 0 0 0 3 5 0 0 0 FFTFFFFFFFFFFF9 1 82 1 12 101 79 12 72 ATOM_ID_20011 0 
